<?xml version="1.0" encoding="UTF-8" standalone="no"?>
<svg
   width="72"
   height="24"
   viewBox="0 0 72 24"
   fill="none"
   version="1.1"
   id="svg1"
   sodipodi:docname="BlockEditLayout.svg"
   xml:space="preserve"
   inkscape:version="1.4.3 (0d15f75, 2025-12-25)"
   inkscape:export-filename="BlockEditLayout.png"
   inkscape:export-xdpi="96"
   inkscape:export-ydpi="96"
   xmlns:inkscape="http://www.inkscape.org/namespaces/inkscape"
   xmlns:sodipodi="http://sodipodi.sourceforge.net/DTD/sodipodi-0.dtd"
   xmlns="http://www.w3.org/2000/svg"
   xmlns:svg="http://www.w3.org/2000/svg"><defs
     id="defs1"><inkscape:path-effect
       effect="spiro"
       id="path-effect20"
       is_visible="true"
       lpeversion="1" /><inkscape:path-effect
       effect="spiro"
       id="path-effect19"
       is_visible="true"
       lpeversion="1" /><inkscape:path-effect
       effect="spiro"
       id="path-effect12"
       is_visible="true"
       lpeversion="1" /><inkscape:path-effect
       effect="spiro"
       id="path-effect11"
       is_visible="true"
       lpeversion="1" /><inkscape:path-effect
       effect="spiro"
       id="path-effect10"
       is_visible="true"
       lpeversion="1" /><inkscape:path-effect
       effect="spiro"
       id="path-effect9"
       is_visible="true"
       lpeversion="1" /></defs><sodipodi:namedview
     id="namedview1"
     pagecolor="#ffffff"
     bordercolor="#000000"
     borderopacity="0.25"
     inkscape:showpageshadow="2"
     inkscape:pageopacity="0.0"
     inkscape:pagecheckerboard="0"
     inkscape:deskcolor="#d1d1d1"
     showgrid="true"
     inkscape:zoom="8.5494677"
     inkscape:cx="71.87582"
     inkscape:cy="61.582782"
     inkscape:window-width="3840"
     inkscape:window-height="2126"
     inkscape:window-x="-11"
     inkscape:window-y="-11"
     inkscape:window-maximized="1"
     inkscape:current-layer="svg1"
     inkscape:export-bgcolor="#e5e4e0ff"><inkscape:grid
       id="grid1"
       units="px"
       originx="0"
       originy="0"
       spacingx="1"
       spacingy="1"
       empcolor="#0099e5"
       empopacity="0.30196078"
       color="#0099e5"
       opacity="0.14901961"
       empspacing="6"
       enabled="true"
       visible="true" /></sodipodi:namedview><path
     id="path1"
     d="m 20.542839,5.6713823 c 0.8759,0.3078 1.5038,1.14223 1.5038,2.12332 v 9.9999997 c 0,2.3472 -1.9028,4.25 -4.25,4.25 H 7.7966388 c -0.9810902,0 -1.8155202,-0.6279 -2.1233202,-1.5038 l 2.0972802,0.0034 10.0260402,4e-4 c 1.5188,0 2.75,-1.2312 2.75,-2.75 V 7.7947023 l -0.004,-0.05098 z m -3.2494,-2.12668 H 4.2966386 c -0.41421,0 -0.75,0.33579 -0.75,0.75 V 17.291502 c 0,0.4142 0.33579,0.75 0.75,0.75 H 17.293439 c 0.4142,0 0.75,-0.3358 0.75,-0.75 V 4.2947023 c 0,-0.41421 -0.3358,-0.75 -0.75,-0.75 z m 0,-1.5 c 1.2427,0 2.25,1.00736 2.25,2.25 V 17.291502 c 0,1.2427 -1.0073,2.25 -2.25,2.25 H 4.2966386 c -1.24264,0 -2.25,-1.0073 -2.25,-2.25 V 4.2947023 c 0,-1.24264 1.00736,-2.25 2.25,-2.25 z"
     style="fill:#007acc;fill-opacity:1" /><path
     id="path1-2"
     d="m 44.510763,5.6662692 c 0.8759,0.3078 1.5038,1.14223 1.5038,2.12332 v 9.9999998 c 0,2.3472 -1.9028,4.25 -4.25,4.25 h -10 c -0.98109,0 -1.81552,-0.6279 -2.12332,-1.5038 l 2.09728,0.0034 10.02604,4e-4 c 1.5188,0 2.75,-1.2312 2.75,-2.75 V 7.7895892 l -0.004,-0.05098 z m -3.2494,-2.12668 h -12.9968 c -0.41421,0 -0.75,0.33579 -0.75,0.75 V 17.286389 c 0,0.4142 0.33579,0.75 0.75,0.75 h 12.9968 c 0.4142,0 0.75,-0.3358 0.75,-0.75 V 4.2895892 c 0,-0.41421 -0.3358,-0.75 -0.75,-0.75 z m 0,-1.5 c 1.2427,0 2.25,1.00736 2.25,2.25 V 17.286389 c 0,1.2427 -1.0073,2.25 -2.25,2.25 h -12.9968 c -1.24264,0 -2.25,-1.0073 -2.25,-2.25 V 4.2895892 c 0,-1.24264 1.00736,-2.25 2.25,-2.25 z"
     style="fill:#212121;fill-opacity:1" /><path
     d="m 38.039779,5.069796 h -0.0021 c -0.5846,3e-4 -1.1692,0.2234 -1.6152,0.6695 l -5.9024,5.9024 c -0.3442,0.3441 -0.5883,0.7753 -0.7063,1.2475 l -0.4577,1.8307 c -0.199,0.7961 0.5221,1.5173 1.3182,1.3182 l 1.8307,-0.4577 c 0.4722,-0.118 0.9034,-0.3621 1.2475,-0.7063 l 5.9024,-5.9024 c 0.8927,-0.8926 0.8927,-2.3398 0,-3.2324 -0.446,-0.4461 -1.0305,-0.6692 -1.6151,-0.6695 z"
     id="path5"
     style="fill:#212121;fill-opacity:1" /><path
     style="fill:#212121;fill-opacity:1;stroke:#808080;stroke-width:0;paint-order:stroke fill markers"
     d="M 56.317965,-1.0683625 33.90779,-1.2209857"
     id="path9"
     inkscape:path-effect="#path-effect9"
     inkscape:original-d="M 56.317965,-1.0683625 33.90779,-1.2209857" /><g
     id="path11"
     style="opacity:1" /><g
     id="path19"
     style="opacity:1;fill:#212121;fill-opacity:1"><path
       style="baseline-shift:baseline;display:inline;overflow:visible;vector-effect:none;fill:#212121;stroke-linecap:round;paint-order:stroke fill markers;enable-background:accumulate;stop-color:#000000;stop-opacity:1;fill-opacity:1"
       d="m 51.982422,3.2617188 a 0.75,0.75 0 0 0 -0.53125,0.21875 0.75,0.75 0 0 0 0,1.0605468 L 67.455078,20.544922 a 0.75,0.75 0 0 0 1.060547,0 0.75,0.75 0 0 0 0,-1.060547 L 52.511719,3.4804688 a 0.75,0.75 0 0 0 -0.529297,-0.21875 z"
       id="path21" /><path
       style="baseline-shift:baseline;display:inline;overflow:visible;vector-effect:none;fill:#212121;stroke-linecap:round;paint-order:stroke fill markers;enable-background:accumulate;stop-color:#000000;stop-opacity:1;fill-opacity:1"
       d="M 51.981788,4.0113233 67.985727,20.015263"
       id="path22" /></g><g
     id="path20"
     style="opacity:1;fill:#212121;fill-opacity:1"><path
       style="baseline-shift:baseline;display:inline;overflow:visible;vector-effect:none;fill:#212121;stroke-linecap:round;paint-order:stroke fill markers;enable-background:accumulate;stop-color:#000000;stop-opacity:1;fill-opacity:1"
       d="m 67.945312,3.2617188 a 0.75,0.75 0 0 0 -0.53125,0.21875 L 51.451172,19.443359 a 0.75,0.75 0 0 0 0,1.060547 0.75,0.75 0 0 0 1.060547,0 L 68.474609,4.5410156 a 0.75,0.75 0 0 0 0,-1.0605468 0.75,0.75 0 0 0 -0.529297,-0.21875 z"
       id="path23" /><path
       style="baseline-shift:baseline;display:inline;overflow:visible;vector-effect:none;fill:#212121;stroke-linecap:round;paint-order:stroke fill markers;enable-background:accumulate;stop-color:#000000;stop-opacity:1;fill-opacity:1"
       d="M 51.981788,19.973909 67.944373,4.0113233"
       id="path24" /></g></svg>
