<?xml version="1.0" encoding="UTF-8" standalone="no"?>
<svg
   width="24"
   height="24"
   viewBox="0 0 24 24"
   fill="none"
   version="1.1"
   id="svg1"
   sodipodi:docname="LayerManageButton.svg"
   inkscape:version="1.4.3 (0d15f75, 2025-12-25)"
   xmlns:inkscape="http://www.inkscape.org/namespaces/inkscape"
   xmlns:sodipodi="http://sodipodi.sourceforge.net/DTD/sodipodi-0.dtd"
   xmlns="http://www.w3.org/2000/svg"
   xmlns:svg="http://www.w3.org/2000/svg">
  <defs
     id="defs1" />
  <sodipodi:namedview
     id="namedview1"
     pagecolor="#ffffff"
     bordercolor="#000000"
     borderopacity="0.25"
     inkscape:showpageshadow="2"
     inkscape:pageopacity="0.0"
     inkscape:pagecheckerboard="0"
     inkscape:deskcolor="#d1d1d1"
     showgrid="true"
     inkscape:zoom="39.3125"
     inkscape:cx="1.5135135"
     inkscape:cy="16.572337"
     inkscape:window-width="3840"
     inkscape:window-height="2126"
     inkscape:window-x="-11"
     inkscape:window-y="-11"
     inkscape:window-maximized="1"
     inkscape:current-layer="svg1">
    <inkscape:grid
       id="grid4"
       units="px"
       originx="0"
       originy="0"
       spacingx="1"
       spacingy="1"
       empcolor="#0099e5"
       empopacity="0.30196078"
       color="#0099e5"
       opacity="0.14901961"
       empspacing="6"
       enabled="true"
       visible="true" />
  </sodipodi:namedview>
  <path
     id="path1-5"
     d="m 18.414603,13.092414 -7.097099,4.733723 c -0.08396,0.05596 -0.153365,0.131217 -0.20244,0.219405 L 9.6783904,20.62694 12.653298,20.342673 c 0.104333,-0.01 0.204622,-0.0456 0.291807,-0.103851 l 7.086251,-4.726173 c 0.668633,-0.446406 0.848522,-1.349462 0.402491,-2.017383 -0.446484,-0.668674 -1.350318,-0.848993 -2.019243,-0.40286 z m 3.075104,-0.30216 c 0.835398,1.251068 0.498354,2.942464 -0.752656,3.777786 l -7.087463,4.727054 c -0.261671,0.174482 -0.562471,0.281464 -0.875569,0.311438 L 8.9974706,21.967368 C 8.5321315,22.011846 8.1188592,21.670663 8.0744092,21.205303 8.0580966,21.03464 8.0940203,20.862975 8.177391,20.713176 l 1.828294,-3.285018 c 0.147241,-0.264556 0.355443,-0.490236 0.607318,-0.65821 l 7.097098,-4.733749 c 1.252,-0.83509 2.943959,-0.497538 3.779598,0.754053 z"
     style="fill:#212121;fill-opacity:1;stroke-width:0.8464" />
  <path
     d="m 10.168524,2.4030673 5.387505,3.5916561 c 0.389005,0.2592946 0.494043,0.784799 0.234791,1.1737452 -0.06205,0.092977 -0.141772,0.1727587 -0.234791,0.234749 l -5.387505,3.5916894 c -0.7107225,0.473815 -1.6366842,0.473815 -2.3474909,0 L 2.4335871,7.4032176 C 2.0446409,7.1439145 1.9395434,6.6184186 2.198838,6.2294724 2.2607945,6.1364869 2.34061,6.0567053 2.4335871,5.9947234 l 5.387446,-3.5916561 c 0.7108067,-0.4738486 1.6367684,-0.4738486 2.3474909,0 z"
     id="path4-4-1"
     style="fill:#212121;fill-opacity:1;stroke-width:0.8464" />
  <path
     d="m 8.6230818,3.4032751 -0.097759,0.056159 -4.85859,3.2395367 4.85859,3.239545 c 0.2527347,0.1684332 0.5734357,0.1871392 0.8412367,0.056116 L 9.4643185,9.9385155 14.322062,6.6989705 9.4643185,3.4594338 C 9.2115835,3.2909578 8.8908825,3.2722355 8.6230818,3.4032751 Z"
     id="path3-8-5-1"
     style="fill:#ffffff;fill-opacity:1;stroke-width:0.8464" />
  <path
     d="m 16.085424,9.8194464 c 0.153791,0.4622186 0.107831,0.9870716 -0.17055,1.4324476 -0.125605,0.200937 -0.292008,0.373264 -0.488372,0.505894 l -5.120636,3.456444 c -0.7153775,0.482871 -1.6523418,0.482871 -2.367719,0 L 2.8175285,11.757788 C 2.1734266,11.322992 1.9236539,10.522635 2.1580729,9.8198696 l 5.7901462,3.8591624 c 0.6663707,0.444275 1.5218274,0.472037 2.2118129,0.08329 l 0.135678,-0.08329 z"
     id="path2-5-5"
     style="fill:#212121;fill-opacity:1;stroke-width:0.8464" />
</svg>
