<?xml version="1.0" encoding="UTF-8" standalone="no"?>
<svg
   width="312"
   height="24"
   viewBox="0 0 312 24"
   fill="none"
   version="1.1"
   id="svg8"
   sodipodi:docname="LayerStates.svg"
   inkscape:version="1.4.3 (0d15f75, 2025-12-25)"
   inkscape:export-filename="LayerStates.png"
   inkscape:export-xdpi="96"
   inkscape:export-ydpi="96"
   xmlns:inkscape="http://www.inkscape.org/namespaces/inkscape"
   xmlns:sodipodi="http://sodipodi.sourceforge.net/DTD/sodipodi-0.dtd"
   xmlns="http://www.w3.org/2000/svg"
   xmlns:svg="http://www.w3.org/2000/svg">
  <sodipodi:namedview
     id="namedview8"
     pagecolor="#ffffff"
     bordercolor="#000000"
     borderopacity="0.25"
     inkscape:showpageshadow="2"
     inkscape:pageopacity="0.0"
     inkscape:pagecheckerboard="0"
     inkscape:deskcolor="#d1d1d1"
     showgrid="true"
     inkscape:zoom="4.9140626"
     inkscape:cx="116.70588"
     inkscape:cy="63.593003"
     inkscape:window-width="3840"
     inkscape:window-height="2126"
     inkscape:window-x="-11"
     inkscape:window-y="-11"
     inkscape:window-maximized="1"
     inkscape:current-layer="svg8"
     inkscape:export-bgcolor="#f7f6f3ff">
    <inkscape:grid
       id="grid8"
       units="px"
       originx="0"
       originy="0"
       spacingx="1"
       spacingy="1"
       empcolor="#0099e5"
       empopacity="0.30196078"
       color="#0099e5"
       opacity="0.14901961"
       empspacing="6"
       enabled="true"
       visible="true" />
  </sodipodi:namedview>
  <rect
     style="fill:#ffdd96;fill-opacity:1;stroke:#ffffff;stroke-width:2;paint-order:stroke fill markers"
     id="rect1"
     width="13.227345"
     height="11.650238"
     x="27.319553"
     y="9.4117641" />
  <path
     d="m 40.71883,1.2611989 c 2.6234,0 4.75,2.12665 4.75,4.75 v 0.5 c 0,0.41421 -0.3358,0.75 -0.75,0.75 -0.4142,0 -0.75,-0.33579 -0.75,-0.75 v -0.5 c 0,-1.79493 -1.4551,-3.25 -3.25,-3.25 -1.7949,0 -3.25,1.45507 -3.25,3.25 v 2.25 h 1.25 c 1.7949,0 3.25,1.45507 3.25,3.2500001 v 7.5 c 0,1.7949 -1.4551,3.25 -3.25,3.25 h -9.5 c -1.79493,0 -3.25,-1.4551 -3.25,-3.25 v -7.5 c 0,-1.7949301 1.45507,-3.2500001 3.25,-3.2500001 h 6.75 v -2.25 c 0,-2.62335 2.1266,-4.75 4.75,-4.75 z m -11.5,8.5 c -0.9665,0 -1.75,0.7835001 -1.75,1.7500001 v 7.5 c 0,0.9665 0.7835,1.75 1.75,1.75 h 9.5 c 0.9665,0 1.75,-0.7835 1.75,-1.75 v -7.5 c 0,-0.9665 -0.7835,-1.7500001 -1.75,-1.7500001 z m 4.75,4.2500001 c 0.6904,0 1.25,0.5596 1.25,1.25 0,0.6904 -0.5596,1.25 -1.25,1.25 -0.6904,0 -1.25,-0.5596 -1.25,-1.25 0,-0.6904 0.5596,-1.25 1.25,-1.25 z"
     fill="#212121"
     id="path1-2"
     style="fill:#808080;fill-opacity:1" />
  <path
     d="m 39.179253,27.562798 c 2.6234,0 4.75,2.12665 4.75,4.75 v 0.5 c 0,0.41421 -0.3358,0.75 -0.75,0.75 -0.4142,0 -0.75,-0.33579 -0.75,-0.75 v -0.5 c 0,-1.79493 -1.4551,-3.25 -3.25,-3.25 -1.7949,0 -3.25,1.45507 -3.25,3.25 v 2.25 h 1.25 c 1.7949,0 3.25,1.45507 3.25,3.25 v 7.5 c 0,1.7949 -1.4551,3.25 -3.25,3.25 h -9.5 c -1.79493,0 -3.25,-1.4551 -3.25,-3.25 v -7.5 c 0,-1.79493 1.45507,-3.25 3.25,-3.25 h 6.75 v -2.25 c 0,-2.62335 2.1266,-4.75 4.75,-4.75 z"
     id="path18" />
  <path
     d="m 27.679253,36.062798 c -0.9665,0 -1.75,0.7835 -1.75,1.75 v 7.5 c 0,0.9665 0.7835,1.75 1.75,1.75 h 9.5 c 0.9665,0 1.75,-0.7835 1.75,-1.75 v -7.5 c 0,-0.9665 -0.7835,-1.75 -1.75,-1.75 z"
     id="path17" />
  <path
     d="m 32.429253,40.312798 c 0.6904,0 1.25,0.5596 1.25,1.25 0,0.6904 -0.5596,1.25 -1.25,1.25 -0.6904,0 -1.25,-0.5596 -1.25,-1.25 0,-0.6904 0.5596,-1.25 1.25,-1.25 z"
     id="path1-2-9" />
  <rect
     style="fill:#58b6ff;fill-opacity:1;stroke:#808080;stroke-width:0;stroke-dasharray:none;paint-order:stroke fill markers"
     id="rect18"
     width="13.481717"
     height="11.701113"
     x="5.1383147"
     y="9.4626389" />
  <path
     d="m 11.967489,1.2877891 c 2.7614,0 5,2.23858 5,5 v 2.00977 c 1.6781,0.12766 3,1.52943 3,3.2402299 v 7.5 c 0,1.7949 -1.4551,3.25 -3.25,3.25 H 7.2174895 c -1.79493,0 -3.25,-1.4551 -3.25,-3.25 v -7.5 c 0,-1.7107999 1.3219,-3.1125699 3,-3.2402299 v -2.00977 c 0,-2.76142 2.23858,-5 4.9999995,-5 z m -4.7499995,8.5 c -0.9665,0 -1.75,0.7834999 -1.75,1.7499999 v 7.5 c 0,0.9665 0.7835,1.75 1.75,1.75 h 9.4999995 c 0.9665,0 1.75,-0.7835 1.75,-1.75 v -7.5 c 0,-0.9665 -0.7835,-1.7499999 -1.75,-1.7499999 z m 4.7499995,4.2499999 c 0.6904,0 1.25,0.5596 1.25,1.25 0,0.6904 -0.5596,1.25 -1.25,1.25 -0.6904,0 -1.249999,-0.5596 -1.249999,-1.25 0,-0.6904 0.559599,-1.25 1.249999,-1.25 z m 0,-11.2499999 c -1.932999,0 -3.4999995,1.567 -3.4999995,3.5 v 2 h 6.9999995 v -2 c 0,-1.933 -1.567,-3.5 -3.5,-3.5 z"
     fill="#212121"
     id="path1"
     style="fill:#808080;fill-opacity:1" />
  <defs
     id="defs8">
    <linearGradient
       id="paint0_linear_72095_9079"
       x1="9.7142897"
       y1="0.94925398"
       x2="15.8349"
       y2="11.0566"
       gradientUnits="userSpaceOnUse">
      <stop
         stop-color="#FFC205"
         id="stop3" />
      <stop
         offset="1"
         stop-color="#FB5937"
         id="stop4" />
    </linearGradient>
    <linearGradient
       id="paint1_linear_72095_9079"
       x1="21.1429"
       y1="21.875"
       x2="6.5420098"
       y2="8.2777996"
       gradientUnits="userSpaceOnUse"
       gradientTransform="translate(-13.813876,26.692438)">
      <stop
         stop-color="#FF6F47"
         id="stop5" />
      <stop
         offset="1"
         stop-color="#FFCD0F"
         id="stop6" />
    </linearGradient>
    <radialGradient
       id="paint2_radial_72095_9079"
       cx="0"
       cy="0"
       r="1"
       gradientUnits="userSpaceOnUse"
       gradientTransform="matrix(-1.4999631,-5.250008,7.2843852,-2.0811985,12.75,15.5)">
      <stop
         stop-color="#944600"
         id="stop7" />
      <stop
         offset="1"
         stop-color="#CD8E02"
         id="stop8" />
    </radialGradient>
    <linearGradient
       id="paint1_linear_72095_9079-3"
       x1="21.1429"
       y1="21.875"
       x2="6.5420098"
       y2="8.2777996"
       gradientUnits="userSpaceOnUse"
       gradientTransform="translate(0.03563825,0.97128817)">
      <stop
         stop-color="#FF6F47"
         id="stop5-3"
         offset="0"
         style="stop-color:#b47b00;stop-opacity:1;" />
      <stop
         offset="1"
         stop-color="#FFCD0F"
         id="stop6-4" />
    </linearGradient>
    <radialGradient
       id="paint2_radial_72095_9055"
       cx="0"
       cy="0"
       r="1"
       gradientUnits="userSpaceOnUse"
       gradientTransform="matrix(4.7672395,17.59149,-25.491445,6.908103,55.345978,4.0661139)">
      <stop
         stop-color="#FFE06B"
         id="stop9" />
      <stop
         offset="0.376456"
         stop-color="#FFA43D"
         id="stop10" />
      <stop
         offset="1"
         stop-color="#E67505"
         id="stop11" />
    </radialGradient>
    <radialGradient
       id="paint2_radial_72095_9055-2"
       cx="0"
       cy="0"
       r="1"
       gradientUnits="userSpaceOnUse"
       gradientTransform="matrix(4.7672395,17.59149,-25.491445,6.908103,79.14248,4.0851918)">
      <stop
         stop-color="#FFE06B"
         id="stop9-7" />
      <stop
         offset="0.376456"
         stop-color="#FFA43D"
         id="stop10-7" />
      <stop
         offset="1"
         stop-color="#E67505"
         id="stop11-9" />
    </radialGradient>
    <linearGradient
       id="paint1_linear_72095_8040"
       x1="6.8387098"
       y1="2.8064499"
       x2="22.114401"
       y2="22.682699"
       gradientUnits="userSpaceOnUse"
       gradientTransform="translate(92,-2)">
      <stop
         offset="0.379481"
         stop-color="#FF6CE8"
         stop-opacity="0"
         id="stop5-2" />
      <stop
         offset="1"
         stop-color="#FF6CE8"
         stop-opacity="0.7"
         id="stop6-8" />
    </linearGradient>
    <linearGradient
       id="paint1_linear_72095_8040-0"
       x1="6.8387098"
       y1="2.8064499"
       x2="22.114401"
       y2="22.682699"
       gradientUnits="userSpaceOnUse"
       gradientTransform="translate(96.039746,0.06200316)">
      <stop
         offset="0.37948099"
         stop-color="#FF6CE8"
         stop-opacity="0"
         id="stop5-24"
         style="stop-color:#ff6ce8;stop-opacity:0.89621317;" />
      <stop
         offset="1"
         stop-color="#FF6CE8"
         stop-opacity="0.7"
         id="stop6-86" />
    </linearGradient>
  </defs>
  <path
     d="m 104,0 c 0.5523,0 1,0.44772 1,1 v 2.5513 l 1.7067,-1.70668 c 0.3905,-0.39053 1.0237,-0.39053 1.4142,0 0.3905,0.39052 0.3905,1.02369 0,1.41421 L 105,6.37973 V 9 h 2.6203 l 3.1209,-3.1209 c 0.3905,-0.39052 1.0237,-0.39052 1.4142,0 0.3905,0.39052 0.3905,1.02369 0,1.41421 L 110.4487,9 H 113 c 0.5523,0 1,0.4477 1,1 0,0.5523 -0.4477,1 -1,1 h -2.5513 l 1.7067,1.7067 c 0.3905,0.3905 0.3905,1.0237 0,1.4142 -0.3905,0.3905 -1.0237,0.3905 -1.4142,0 L 107.6203,11 H 105 v 2.6203 l 3.1209,3.1209 c 0.3905,0.3905 0.3905,1.0237 0,1.4142 -0.3905,0.3905 -1.0237,0.3905 -1.4142,0 L 105,16.4487 V 19 c 0,0.5523 -0.4477,1 -1,1 -0.5523,0 -1,-0.4477 -1,-1 v -2.5513 l -1.70669,1.7067 c -0.39052,0.3905 -1.02369,0.3905 -1.41421,0 -0.39052,-0.3905 -0.39052,-1.0237 0,-1.4142 L 103,13.6203 V 11 h -2.62027 l -3.1209,3.1209 c -0.39052,0.3905 -1.02369,0.3905 -1.41421,0 -0.39053,-0.3905 -0.39053,-1.0237 0,-1.4142 L 97.5513,11 H 95 c -0.55228,0 -1,-0.4477 -1,-1 0,-0.5523 0.44772,-1 1,-1 h 2.5513 L 95.84462,7.29331 c -0.39053,-0.39052 -0.39053,-1.02369 0,-1.41421 0.39052,-0.39052 1.02369,-0.39052 1.41421,0 L 100.37973,9 H 103 V 6.37973 l -3.1209,-3.1209 c -0.39052,-0.39052 -0.39052,-1.02369 0,-1.41421 0.39052,-0.39053 1.02369,-0.39053 1.41421,0 L 103,3.5513 V 1 c 0,-0.55228 0.4477,-1 1,-1 z"
     fill="url(#paint1_linear_72095_8040)"
     id="path2-6"
     style="fill:none" />
  <rect
     style="fill:#ffdd96;fill-opacity:1;stroke:#ffffff;stroke-width:0;stroke-dasharray:none;paint-order:stroke fill markers"
     id="rect6"
     width="18.009539"
     height="5.5961843"
     x="146.82353"
     y="7.224165" />
  <rect
     style="fill:#ffdd96;fill-opacity:1;stroke:#ffffff;stroke-width:0;stroke-dasharray:none;paint-order:stroke fill markers"
     id="rect7"
     width="4.171701"
     height="4.069952"
     x="146.82353"
     y="12.260731" />
  <rect
     style="fill:#ffdd96;fill-opacity:1;stroke:#ffffff;stroke-width:0;stroke-dasharray:none;paint-order:stroke fill markers"
     id="rect8"
     width="3.5612082"
     height="3.9682033"
     x="161.27185"
     y="12.464229" />
  <path
     d="m 159.77317,2.9650239 c 1.2426,0 2.25,1.00736 2.25,2.25 l -5e-4,0.753 0.7505,5.8e-4 c 1.7944,0.00175 3.2486,1.45519 3.2513,3.24886 l 0.003,5.9972601 c 0.002,1.2421 -1.005,2.2505 -2.248,2.2512 l -1.7588,-9e-4 v 1.25 c 0,1.2426 -1.0074,2.25 -2.25,2.25 h -7.5 c -1.24264,0 -2.25,-1.0074 -2.25,-2.25 l 9.1e-4,-1.25 -1.75091,10e-5 c -1.24264,0 -2.25,-1.0074 -2.25,-2.25 V 9.2186039 c 0,-1.79493 1.45507,-3.25 3.25,-3.25 l 0.749,-5.8e-4 0.001,-0.753 c 0,-1.24264 1.00736,-2.25 2.25,-2.25 z m -0.002,10.5000001 h -7.5 c -0.41421,0 -0.75,0.3358 -0.75,0.75 v 4.5 c 0,0.4142 0.33579,0.75 0.75,0.75 h 7.5 c 0.4142,0 0.75,-0.3358 0.75,-0.75 v -4.5 c 0,-0.4142 -0.3358,-0.75 -0.75,-0.75 z m 3.0018,-5.9964201 h -13.5023 c -0.9665,0 -1.75,0.7835 -1.75,1.75 v 5.9965201 c 0,0.4142 0.33579,0.75 0.75,0.75 l 1.75,-10e-5 v -1.75 c 0,-1.2426 1.00736,-2.25 2.25,-2.25 h 7.5 c 1.2426,0 2.25,1.0074 2.25,2.25 l 9e-4,1.7501 1.7818,4e-4 c 0.4028,-0.0131 0.725,-0.3438 0.7244,-0.7493 l -0.003,-5.9972201 c -10e-4,-0.96597 -0.7853,-1.74946 -1.752,-1.7504 z m -2.9998,-3.00358 h -7.5025 c -0.41421,0 -0.75,0.33579 -0.75,0.75 l -0.001,0.753 h 9.003 l 5e-4,-0.753 c 0,-0.41421 -0.3358,-0.75 -0.75,-0.75 z"
     fill="#212121"
     id="path1-00"
     style="fill:#808080;fill-opacity:1" />
  <rect
     style="fill:#58b6ff;stroke:#808080;stroke-width:0;paint-order:stroke fill markers;stroke-dasharray:none;fill-opacity:1"
     id="rect2"
     width="18.009539"
     height="5.1383147"
     x="171.34499"
     y="7.3259139" />
  <rect
     style="fill:#58b6ff;stroke:#808080;stroke-width:0;stroke-dasharray:none;paint-order:stroke fill markers;fill-opacity:1"
     id="rect3"
     width="3.8155878"
     height="4.1208262"
     x="171.34499"
     y="11.955484"
     ry="0" />
  <rect
     style="fill:#58b6ff;stroke:#808080;stroke-width:0;stroke-dasharray:none;paint-order:stroke fill markers;fill-opacity:1"
     id="rect4"
     width="3.9681966"
     height="4.0190773"
     x="185.38632"
     y="12.260731" />
  <path
     d="m 183.91148,2.9920509 c 1.2426,0 2.25,1.00736 2.25,2.25 l -5e-4,0.753 0.7505,5.8e-4 c 1.7944,0.00175 3.2486,1.45519 3.2513,3.24886 l 0.003,5.9972601 c 0.002,1.2421 -1.005,2.2505 -2.248,2.2512 l -1.7588,-9e-4 v 1.25 c 0,1.2426 -1.0074,2.25 -2.25,2.25 h -7.5 c -1.24264,0 -2.25,-1.0074 -2.25,-2.25 l 9.1e-4,-1.25 -1.75091,10e-5 c -1.24264,0 -2.25,-1.0074 -2.25,-2.25 V 9.2456309 c 0,-1.79493 1.45507,-3.25 3.25,-3.25 l 0.749,-5.8e-4 0.001,-0.753 c 0,-1.24264 1.00736,-2.25 2.25,-2.25 z m -0.002,10.5000001 h -7.5 c -0.41421,0 -0.75,0.3358 -0.75,0.75 v 4.5 c 0,0.4142 0.33579,0.75 0.75,0.75 h 7.5 c 0.4142,0 0.75,-0.3358 0.75,-0.75 v -4.5 c 0,-0.4142 -0.3358,-0.75 -0.75,-0.75 z m 3.0018,-5.9964201 h -13.5023 c -0.9665,0 -1.75,0.7835 -1.75,1.75 v 5.9965201 c 0,0.4142 0.33579,0.75 0.75,0.75 l 1.75,-10e-5 v -1.75 c 0,-1.2426 1.00736,-2.25 2.25,-2.25 h 7.5 c 1.2426,0 2.25,1.0074 2.25,2.25 l 9e-4,1.7501 1.7818,4e-4 c 0.4028,-0.0131 0.725,-0.3438 0.7244,-0.7493 l -0.003,-5.9972201 c -0.001,-0.96597 -0.7853,-1.74946 -1.752,-1.7504 z m -2.9998,-3.00358 h -7.5025 c -0.41421,0 -0.75,0.33579 -0.75,0.75 l -0.001,0.753 h 9.003 l 5e-4,-0.753 c 0,-0.41421 -0.3358,-0.75 -0.75,-0.75 z"
     fill="#212121"
     id="path1-00-1"
     style="fill:#808080;fill-opacity:1" />
  <path
     d="m 182.38553,19.308303 1.42,1.420063 c 0.122,0.122 0.31994,0.122 0.442,0 0.122,-0.122063 0.122,-0.319938 0,-0.442 l -8.12504,-8.124969 c -0.122,-0.122038 -0.3199,-0.122038 -0.44194,0 -0.122,0.122037 -0.122,0.3199 0,0.441937 l 1.42001,1.420019 c -0.55305,0.653338 -0.88653,1.498481 -0.88653,2.421513 0,2.071062 1.67892,3.75 3.75,3.75 0.92302,0 1.76818,-0.3335 2.4215,-0.886563 z m -0.44375,-0.44375 c -0.53875,0.440813 -1.22736,0.705313 -1.97775,0.705313 -1.72589,0 -3.125,-1.399125 -3.125,-3.125 0,-0.750394 0.26449,-1.439019 0.70532,-1.977732 z m 1.14725,-2.419687 c 0,0.521531 -0.12775,1.013218 -0.35369,1.4455 l 0.4595,0.459437 c 0.32988,-0.55825 0.51919,-1.209494 0.51919,-1.904937 0,-2.071069 -1.67894,-3.75 -3.75,-3.75 -0.69545,0 -1.34668,0.189306 -1.90496,0.5192 l 0.45947,0.459481 c 0.43226,-0.225925 0.92395,-0.353681 1.44549,-0.353681 1.72587,0 3.125,1.399112 3.125,3.125 z"
     fill="#212121"
     id="path1-3"
     style="fill:#c70f21;fill-opacity:1;stroke-width:1;stroke-dasharray:none" />
  <path
     d="m 205.34134,3.6265571 6.3652,4.24345 c 0.4596,0.30635 0.5837,0.92722 0.2774,1.38675 -0.0733,0.10985 -0.1675,0.20411 -0.2774,0.27735 l -6.3652,4.2434899 c -0.8397,0.5598 -1.9337,0.5598 -2.7735,0 l -6.36513,-4.2434899 c -0.45953,-0.30636 -0.5837,-0.92722 -0.27735,-1.38675 0.0732,-0.10986 0.1675,-0.20412 0.27735,-0.27735 l 6.36513,-4.24345 c 0.8398,-0.55984 1.9338,-0.55984 2.7735,0 z"
     id="path4"
     style="fill:#00c000;fill-opacity:1" />
  <path
     d="m 203.51544,4.8082771 -0.1155,0.06635 -5.7403,3.82743 5.7403,3.8274399 c 0.2986,0.199 0.6775,0.2211 0.9939,0.0663 l 0.1155,-0.0663 5.7393,-3.8274399 -5.7393,-3.82743 c -0.2986,-0.19905 -0.6775,-0.22117 -0.9939,-0.06635 z"
     id="path3-8"
     style="fill:#00c000;fill-opacity:1" />
  <path
     d="m 212.18174,13.951597 c 0.1817,0.5461 0.1274,1.1662 -0.2015,1.6924 -0.1484,0.2374 -0.345,0.441 -0.577,0.5977 l -6.0499,4.0837 c -0.8452,0.5705 -1.9522,0.5705 -2.7974,0 l -6.04988,-4.0837 c -0.76099,-0.5137 -1.05609,-1.4593 -0.77913,-2.2896 l 6.84091,4.5595 c 0.7873,0.5249 1.798,0.5577 2.6132,0.0984 l 0.1603,-0.0984 z"
     id="path2"
     style="fill:#808080;fill-opacity:1;stroke-width:0;stroke-dasharray:none" />
  <path
     d="m 229.34331,3.62846 6.3652,4.24345 c 0.4596,0.30635 0.5837,0.92722 0.2774,1.38675 -0.0733,0.10985 -0.1675,0.20411 -0.2774,0.27735 l -6.3652,4.24349 c -0.8397,0.5598 -1.9337,0.5598 -2.7735,0 l -6.36513,-4.24349 c -0.45953,-0.30636 -0.5837,-0.92722 -0.27735,-1.38675 0.0732,-0.10986 0.1675,-0.20412 0.27735,-0.27735 l 6.36513,-4.24345 c 0.8398,-0.55984 1.9338,-0.55984 2.7735,0 z"
     id="path4-4"
     style="fill:#58b6ff;fill-opacity:1" />
  <path
     d="m 227.51741,4.81018 -0.1155,0.06635 -5.7403,3.82743 5.7403,3.82744 c 0.2986,0.199 0.6775,0.2211 0.9939,0.0663 l 0.1155,-0.0663 5.7393,-3.82744 -5.7393,-3.82743 c -0.2986,-0.19905 -0.6775,-0.22117 -0.9939,-0.06635 z"
     id="path3-8-5"
     style="fill:#ffffff;fill-opacity:1" />
  <path
     d="m 236.18371,13.9535 c 0.1817,0.5461 0.1274,1.1662 -0.2015,1.6924 -0.1484,0.2374 -0.345,0.441 -0.577,0.5977 l -6.0499,4.0837 c -0.8452,0.5705 -1.9522,0.5705 -2.7974,0 l -6.04988,-4.0837 c -0.76099,-0.5137 -1.05609,-1.4593 -0.77913,-2.2896 l 6.84091,4.5595 c 0.7873,0.5249 1.798,0.5577 2.6132,0.0984 l 0.1603,-0.0984 z"
     id="path2-5"
     style="fill:#808080;fill-opacity:1" />
  <path
     d="m 253.35724,3.7076383 6.3652,4.24345 c 0.4596,0.30635 0.5837,0.92722 0.2774,1.38675 -0.0733,0.10985 -0.1675,0.20411 -0.2774,0.27735 l -6.3652,4.2434897 c -0.8397,0.5598 -1.9337,0.5598 -2.7735,0 l -6.36513,-4.2434897 c -0.45953,-0.30636 -0.5837,-0.92722 -0.27735,-1.38675 0.0732,-0.10986 0.1675,-0.20412 0.27735,-0.27735 l 6.36513,-4.24345 c 0.8398,-0.55984 1.9338,-0.55984 2.7735,0 z"
     id="path4-4-1"
     style="fill:#808080;fill-opacity:1" />
  <path
     d="m 251.53134,4.8893583 -0.1155,0.06635 -5.7403,3.82743 5.7403,3.8274397 c 0.2986,0.199 0.6775,0.2211 0.9939,0.0663 l 0.1155,-0.0663 5.7393,-3.8274397 -5.7393,-3.82743 c -0.2986,-0.19905 -0.6775,-0.22117 -0.9939,-0.06635 z"
     id="path3-8-5-1"
     style="fill:#ffffff;fill-opacity:1" />
  <path
     d="m 260.19764,14.032678 c 0.1817,0.5461 0.1274,1.1662 -0.2015,1.6924 -0.1484,0.2374 -0.345,0.441 -0.577,0.5977 l -6.0499,4.0837 c -0.8452,0.5705 -1.9522,0.5705 -2.7974,0 l -6.04988,-4.0837 c -0.76099,-0.5137 -1.05609,-1.4593 -0.77913,-2.2896 l 6.84091,4.5595 c 0.7873,0.5249 1.798,0.5577 2.6132,0.0984 l 0.1603,-0.0984 z"
     id="path2-5-5"
     style="fill:#808080;fill-opacity:1" />
  <ellipse
     style="fill:#58b6ff;fill-opacity:1;stroke:#808080;stroke-width:0;stroke-dasharray:none;paint-order:stroke fill markers"
     id="path16"
     cx="83.866455"
     cy="9.0047693"
     rx="6.1303658"
     ry="6.2066765" />
  <rect
     style="fill:#58b6ff;fill-opacity:1;stroke:#808080;stroke-width:0;stroke-dasharray:none;paint-order:stroke fill markers"
     id="rect16"
     width="2.7980921"
     height="3.2050874"
     x="80.635925"
     y="14.041335" />
  <rect
     style="fill:#58b6ff;fill-opacity:1;stroke:#808080;stroke-width:0;stroke-dasharray:none;paint-order:stroke fill markers"
     id="rect17"
     width="3.0524642"
     height="3.3577106"
     x="84.400635"
     y="13.939587" />
  <path
     d="m 83.220815,6.582057 c 0,-0.41421 0.3358,-0.75 0.75,-0.75 0.4142,0 0.75,0.33579 0.75,0.75 v 1.50003 c 0,0.41422 -0.3358,0.75 -0.75,0.75 -0.4142,0 -0.75,-0.33578 -0.75,-0.75 z m 5.0303,1.46534 c -0.2929,-0.29289 -0.7677,-0.29289 -1.0606,0 l -1.0607,1.06068 c -0.2929,0.29289 -0.2929,0.76775 0,1.06065 0.2929,0.2929 0.7678,0.2929 1.0607,0 l 1.0606,-1.06067 c 0.292897,-0.29289 0.292897,-0.76777 0,-1.06066 z m -7.49998,0 c -0.29289,-0.29289 -0.76777,-0.29289 -1.06066,0 -0.29289,0.29289 -0.29289,0.76777 0,1.06066 l 1.06068,1.06067 c 0.2929,0.2929 0.76777,0.2929 1.06066,0 0.2929,-0.2929 0.2929,-0.76776 0,-1.06065 z m 3.21968,-6.21509 c 4.0041,0 7.249997,3.24593 7.249997,7.25 0,2.09602 -0.9007,4.01972 -2.6631,5.74192 -0.0769,0.0752 -0.1365,0.1657 -0.1751,0.2653 l -0.0314,0.1023 -1.131097,4.8956 c -0.2227,0.9639 -1.0458,1.6622 -2.0191,1.7369 l -0.1732,0.0066 h -2.1137 c -0.98956,0 -1.85539,-0.6451 -2.14701,-1.5768 l -0.04541,-0.1673 -1.12956,-4.8948 c -0.03228,-0.1399 -0.10404,-0.2676 -0.20676,-0.3679 -1.67941,-1.6402 -2.57678,-3.4631 -2.65843,-5.44357 l -0.0061,-0.29825 0.0039,-0.23932 c 0.12626,-3.89329 3.32213,-7.01068 7.24612,-7.01068 z m 2.115,16.49802 h -4.231 l 0.3285,1.4192 c 0.0706,0.3063 0.3232,0.5322 0.6276,0.5743 l 0.1032,0.0071 h 2.1137 c 0.3143,0 0.5911,-0.1952 0.7007,-0.4822 l 0.0301,-0.099 z m -2.115,-14.99802 c -3.10179,0 -5.62994,2.45601 -5.74585,5.52944 l -0.0041,0.22056 0.0067,0.27701 c 0.07614,1.56331 0.8005,3.01911 2.2059,4.39171 0.26413,0.258 0.46003,0.5763 0.5716,0.9263 l 0.04869,0.1775 0.45509,1.9755 h 1.71202 v -6.2487 c 0,-0.4142 0.3358,-0.75 0.75,-0.75 0.4142,0 0.75,0.3358 0.75,0.75 v 6.2487 h 1.711 l 0.4579,-1.9762 c 0.083,-0.3594 0.2529,-0.6919 0.4935,-0.9689 l 0.1262,-0.1338 c 1.404597,-1.3726 2.128597,-2.8285 2.204697,-4.39207 l 0.007,-0.27705 -0.004,-0.22056 c -0.1159,-3.07343 -2.643997,-5.52944 -5.745797,-5.52944 z"
     fill="#212121"
     id="path1-27"
     style="fill:#808080;fill-opacity:1" />
  <path
     style="fill:#ffdd96;fill-opacity:1"
     d="m 60.107447,1.810522 c 4.0041,0 7.25,3.24593 7.25,7.25 0,2.13652 -0.9356,4.09332 -2.7654,5.84072 -0.0353,0.0337 -0.0599,0.077 -0.0709,0.1245 l -0.5277,2.2828 h -3.136 v -6.7487 c 0,-0.4142 -0.3358,-0.75 -0.75,-0.75 -0.4142,0 -0.75,0.3358 -0.75,0.75 v 6.7487 h -3.136 l -0.52599,-2.2826 c -0.01099,-0.0476 -0.03567,-0.0909 -0.071,-0.1247 -1.83085,-1.7474 -2.76701,-3.7042 -2.76701,-5.84072 0,-4.00407 3.24593,-7.25 7.25,-7.25 z"
     id="path7" />
  <path
     style="fill:#808080;fill-opacity:1"
     d="m 56.887767,8.025612 c -0.29289,-0.29289 -0.76777,-0.29289 -1.06066,0 -0.29289,0.29289 -0.29289,0.76777 0,1.06066 l 1.06068,1.06067 c 0.2929,0.2929 0.76777,0.2929 1.06066,0 0.2929,-0.2929 0.2929,-0.76776 0,-1.06065 z"
     id="path6" />
  <path
     style="fill:#808080;fill-opacity:1"
     d="m 64.387747,8.025612 c -0.2929,-0.29289 -0.7677,-0.29289 -1.0606,0 l -1.0607,1.06068 c -0.2929,0.29289 -0.2929,0.76775 0,1.06065 0.2929,0.2929 0.7678,0.2929 1.0607,0 l 1.0606,-1.06067 c 0.2929,-0.29289 0.2929,-0.76777 0,-1.06066 z"
     id="path5" />
  <path
     style="fill:#808080;fill-opacity:1"
     d="m 59.357447,6.560272 v 1.50003 c 0,0.41422 0.3358,0.75 0.75,0.75 0.4142,0 0.75,-0.33578 0.75,-0.75 v -1.50003 c 0,-0.41421 -0.3358,-0.75 -0.75,-0.75 -0.4142,0 -0.75,0.33579 -0.75,0.75 z"
     id="path3" />
  <path
     style="fill:#808080;fill-opacity:1"
     d="m 63.645447,18.808542 -0.2907,1.2585 c -0.2232,0.9633 -1.046,1.6609 -2.0188,1.7355 l -0.1731,0.0066 h -2.1117 c -0.98944,0 -1.8552,-0.6449 -2.14692,-1.5764 l -0.04543,-0.1673 -0.29035,-1.2569 z"
     id="path1-6" />
  <path
     d="m 108.98477,1.9783759 c 0.5523,0 1,0.44772 1,1 v 2.5513 l 1.7067,-1.70668 c 0.3905,-0.39053 1.0237,-0.39053 1.4142,0 0.3905,0.39052 0.3905,1.02369 0,1.41421 l -3.1209,3.1209 v 2.6202701 h 2.6203 l 3.1209,-3.1209001 c 0.3905,-0.39052 1.0237,-0.39052 1.4142,0 0.3905,0.39052 0.3905,1.02369 0,1.41421 l -1.7067,1.7066901 h 2.5513 c 0.5523,0 1,0.4477 1,1 0,0.5523 -0.4477,1 -1,1 h -2.5513 l 1.7067,1.7067 c 0.3905,0.3905 0.3905,1.0237 0,1.4142 -0.3905,0.3905 -1.0237,0.3905 -1.4142,0 l -3.1209,-3.1209 h -2.6203 v 2.6203 l 3.1209,3.1209 c 0.3905,0.3905 0.3905,1.0237 0,1.4142 -0.3905,0.3905 -1.0237,0.3905 -1.4142,0 l -1.7067,-1.7067 v 2.5513 c 0,0.5523 -0.4477,1 -1,1 -0.5523,0 -1,-0.4477 -1,-1 v -2.5513 l -1.70669,1.7067 c -0.39052,0.3905 -1.02369,0.3905 -1.41421,0 -0.39052,-0.3905 -0.39052,-1.0237 0,-1.4142 l 3.1209,-3.1209 v -2.6203 h -2.62027 l -3.1209,3.1209 c -0.39052,0.3905 -1.02369,0.3905 -1.41421,0 -0.39053,-0.3905 -0.39053,-1.0237 0,-1.4142 l 1.70668,-1.7067 h -2.551304 c -0.552282,0 -1.000002,-0.4477 -1.000002,-1 0,-0.5523 0.44772,-1 1.000002,-1 h 2.551304 l -1.70668,-1.7066901 c -0.39053,-0.39052 -0.39053,-1.02369 0,-1.41421 0.39052,-0.39052 1.02369,-0.39052 1.41421,0 l 3.1209,3.1209001 h 2.62027 V 8.3581059 l -3.1209,-3.1209 c -0.39052,-0.39052 -0.39052,-1.02369 0,-1.41421 0.39052,-0.39053 1.02369,-0.39053 1.41421,0 l 1.70669,1.70668 v -2.5513 c 0,-0.55228 0.4477,-1 1,-1 z"
     fill="#212121"
     id="path1-1"
     style="fill:#58b6ff;fill-opacity:1" />
  <path
     d="m 138.7459,19.73435 c 0.2929,0.2929 0.7677,0.2929 1.0606,0 0.2929,-0.2929 0.2929,-0.7678 0,-1.0607 l -1.5,-1.5 c -0.2929,-0.2929 -0.7677,-0.2929 -1.0606,0 -0.2929,0.2929 -0.2929,0.7678 0,1.0607 z"
     id="path15"
     style="fill:#ffdd96;fill-opacity:0.92000002" />
  <path
     d="m 139.8065,4.173691 c -0.2929,-0.29289 -0.7677,-0.29289 -1.0606,0 l -1.5,1.5 c -0.2929,0.2929 -0.2929,0.76777 0,1.06066 0.2929,0.2929 0.7677,0.2929 1.0606,0 l 1.5,-1.5 c 0.2929,-0.29289 0.2929,-0.76776 0,-1.06066 z"
     id="path14"
     style="fill:#ffdd96;fill-opacity:0.92000002" />
  <path
     d="m 125.30656,19.73435 c -0.29289,0.2929 -0.76777,0.2929 -1.06066,0 -0.29289,-0.2929 -0.29289,-0.7678 0,-1.0607 l 1.5,-1.5 c 0.29289,-0.2929 0.76777,-0.2929 1.06066,0 0.29289,0.2929 0.29289,0.7678 0,1.0607 z"
     id="path13"
     style="fill:#ffdd96;fill-opacity:0.92000002" />
  <path
     d="m 124.2459,4.173691 c 0.29289,-0.29289 0.76777,-0.29289 1.06066,0 l 1.5,1.5 c 0.29289,0.2929 0.29289,0.76777 0,1.06066 -0.29289,0.2929 -0.76777,0.2929 -1.06066,0 l -1.5,-1.5 c -0.29289,-0.29289 -0.29289,-0.76776 0,-1.06066 z"
     id="path12"
     style="fill:#ffdd96;fill-opacity:0.92000002" />
  <path
     d="m 124.2762,12.70365 c 0.41421,0 0.75,-0.3358 0.75,-0.75 0,-0.4142 -0.33579,-0.75 -0.75,-0.75 h -1.5 c -0.41421,0 -0.75,0.3358 -0.75,0.75 0,0.4142 0.33579,0.75 0.75,0.75 z"
     id="path11"
     style="fill:#ffdd96;fill-opacity:0.92000002" />
  <path
     d="m 132.0262,18.95365 c 0.4142,0 0.75,0.3358 0.75,0.75 v 1.5 c 0,0.4142 -0.3358,0.75 -0.75,0.75 -0.4142,0 -0.75,-0.3358 -0.75,-0.75 v -1.5 c 0,-0.4142 0.3358,-0.75 0.75,-0.75 z"
     id="path10"
     style="fill:#ffdd96;fill-opacity:0.92000002" />
  <path
     d="m 141.2762,12.70365 c 0.4142,0 0.75,-0.3358 0.75,-0.75 0,-0.4142 -0.3358,-0.75 -0.75,-0.75 h -1.5 c -0.4142,0 -0.75,0.3358 -0.75,0.75 0,0.4142 0.3358,0.75 0.75,0.75 z"
     id="path9"
     style="fill:#ffdd96;fill-opacity:0.92000002" />
  <path
     d="m 137.0262,11.95365 c 0,2.7614 -2.2386,5 -5,5 -2.76142,0 -5,-2.2386 -5,-5 0,-2.761419 2.23858,-4.999999 5,-4.999999 2.7614,0 5,2.23858 5,4.999999 z"
     id="path8"
     style="fill:#ffdd96;fill-opacity:0.92000002" />
  <path
     d="m 132.0262,1.953651 c 0.4142,0 0.75,0.33579 0.75,0.75 v 1.5 c 0,0.41421 -0.3358,0.75 -0.75,0.75 -0.4142,0 -0.75,-0.33579 -0.75,-0.75 v -1.5 c 0,-0.41421 0.3358,-0.75 0.75,-0.75 z"
     id="path1-4"
     style="fill:#ffdd96;fill-opacity:0.92000002" />
</svg>
