<?xml version="1.0" encoding="UTF-8" standalone="no"?>
<svg
   width="312"
   height="24"
   viewBox="0 0 312 24"
   fill="none"
   version="1.1"
   id="svg8"
   sodipodi:docname="LayerStates24.svg"
   inkscape:version="1.4.3 (0d15f75, 2025-12-25)"
   inkscape:export-filename="D:\Projects\Eo111222\Application\AeSys\res\LayerStates24.png"
   inkscape:export-xdpi="96"
   inkscape:export-ydpi="96"
   xmlns:inkscape="http://www.inkscape.org/namespaces/inkscape"
   xmlns:sodipodi="http://sodipodi.sourceforge.net/DTD/sodipodi-0.dtd"
   xmlns="http://www.w3.org/2000/svg"
   xmlns:svg="http://www.w3.org/2000/svg">
  <sodipodi:namedview
     id="namedview8"
     pagecolor="#ffffff"
     bordercolor="#000000"
     borderopacity="0.25"
     inkscape:showpageshadow="2"
     inkscape:pageopacity="0.0"
     inkscape:pagecheckerboard="0"
     inkscape:deskcolor="#d1d1d1"
     showgrid="true"
     inkscape:zoom="6.9495338"
     inkscape:cx="152.9599"
     inkscape:cy="68.277961"
     inkscape:window-width="3840"
     inkscape:window-height="2126"
     inkscape:window-x="-11"
     inkscape:window-y="-11"
     inkscape:window-maximized="1"
     inkscape:current-layer="svg8">
    <inkscape:grid
       id="grid8"
       units="px"
       originx="0"
       originy="0"
       spacingx="1"
       spacingy="1"
       empcolor="#0099e5"
       empopacity="0.30196078"
       color="#0099e5"
       opacity="0.14901961"
       empspacing="6"
       enabled="true"
       visible="true" />
  </sodipodi:namedview>
  <path
     d="m 42.927717,11.293235 c 0,-1.7949296 -1.4551,-3.2499996 -3.25,-3.2499996 h -9.5 c -1.79493,0 -3.25,1.45507 -3.25,3.2499996 v 7.5 c 0,1.7949 1.45507,3.25 3.25,3.25 h 9.5 c 1.7949,0 3.25,-1.4551 3.25,-3.25 z"
     fill="url(#paint1_linear_72095_9079)"
     id="path2-7"
     style="fill:#6ec0ff;fill-opacity:1" />
  <path
     d="m 232.50366,6.5261325 c 0,-1.3461969 -1.30959,-2.4374994 -2.925,-2.4374994 h -8.55 c -1.61544,0 -2.925,1.0913025 -2.925,2.4374994 v 5.6250005 c 0,1.346175 1.30956,2.4375 2.925,2.4375 h 8.55 c 1.61541,0 2.925,-1.091325 2.925,-2.4375 z"
     fill="url(#paint1_linear_72095_9079)"
     id="path2-7-4"
     style="fill:#6ec0ff;fill-opacity:1;stroke-width:0.821584" />
  <path
     d="m 41.672132,1.0633439 c 2.6234,0 4.75,2.12665 4.75,4.75 v 0.5 c 0,0.41421 -0.3358,0.75 -0.75,0.75 -0.4142,0 -0.75,-0.33579 -0.75,-0.75 v -0.5 c 0,-1.79493 -1.4551,-3.25 -3.25,-3.25 -1.7949,0 -3.25,1.45507 -3.25,3.25 v 2.25 h 1.25 c 1.7949,0 3.25,1.45507 3.25,3.2500001 v 7.5 c 0,1.7949 -1.4551,3.25 -3.25,3.25 h -9.5 c -1.79493,0 -3.25,-1.4551 -3.25,-3.25 v -7.5 c 0,-1.7949301 1.45507,-3.2500001 3.25,-3.2500001 h 6.75 v -2.25 c 0,-2.62335 2.1266,-4.75 4.75,-4.75 z m -11.5,8.5 c -0.9665,0 -1.75,0.7835001 -1.75,1.7500001 v 7.5 c 0,0.9665 0.7835,1.75 1.75,1.75 h 9.5 c 0.9665,0 1.75,-0.7835 1.75,-1.75 v -7.5 c 0,-0.9665 -0.7835,-1.7500001 -1.75,-1.7500001 z m 4.75,4.2500001 c 0.6904,0 1.25,0.5596 1.25,1.25 0,0.6904 -0.5596,1.25 -1.25,1.25 -0.6904,0 -1.25,-0.5596 -1.25,-1.25 0,-0.6904 0.5596,-1.25 1.25,-1.25 z"
     fill="#212121"
     id="path1-2" />
  <path
     d="m 20.035638,11.221288 c 0,-1.7949298 -1.4551,-3.2499998 -3.25,-3.2499998 H 7.2856382 c -1.79493,0 -3.25,1.45507 -3.25,3.2499998 v 7.5 c 0,1.7949 1.45507,3.25 3.25,3.25 h 9.4999998 c 1.7949,0 3.25,-1.4551 3.25,-3.25 z"
     fill="url(#paint1_linear_72095_9079)"
     id="path2"
     style="fill:url(#paint1_linear_72095_9079-3)" />
  <path
     d="m 12.057423,0.96402636 c 2.7614,0 5,2.23858004 5,5.00000004 v 2.00977 c 1.6781,0.12766 3,1.52943 3,3.2402296 v 7.5 c 0,1.7949 -1.4551,3.25 -3.25,3.25 H 7.3074236 c -1.79493,0 -3.25,-1.4551 -3.25,-3.25 v -7.5 c 0,-1.7107996 1.3219,-3.1125696 3,-3.2402296 v -2.00977 c 0,-2.76142 2.23858,-5.00000004 4.9999994,-5.00000004 z M 7.3074236,9.4640264 c -0.9665,0 -1.75,0.7834996 -1.75,1.7499996 v 7.5 c 0,0.9665 0.7835,1.75 1.75,1.75 h 9.4999994 c 0.9665,0 1.75,-0.7835 1.75,-1.75 v -7.5 c 0,-0.9665 -0.7835,-1.7499996 -1.75,-1.7499996 z m 4.7499994,4.2499996 c 0.6904,0 1.25,0.5596 1.25,1.25 0,0.6904 -0.5596,1.25 -1.25,1.25 -0.6904,0 -1.249999,-0.5596 -1.249999,-1.25 0,-0.6904 0.559599,-1.25 1.249999,-1.25 z m 0,-11.2499996 c -1.932999,0 -3.4999994,1.567 -3.4999994,3.5 v 2 h 6.9999994 v -2 c 0,-1.933 -1.567,-3.5 -3.5,-3.5 z"
     fill="#212121"
     id="path1" />
  <defs
     id="defs8">
    <linearGradient
       id="paint0_linear_72095_9079"
       x1="9.7142897"
       y1="0.94925398"
       x2="15.8349"
       y2="11.0566"
       gradientUnits="userSpaceOnUse">
      <stop
         stop-color="#FFC205"
         id="stop3" />
      <stop
         offset="1"
         stop-color="#FB5937"
         id="stop4" />
    </linearGradient>
    <linearGradient
       id="paint1_linear_72095_9079"
       x1="21.1429"
       y1="21.875"
       x2="6.5420098"
       y2="8.2777996"
       gradientUnits="userSpaceOnUse"
       gradientTransform="translate(-13.813876,26.692438)">
      <stop
         stop-color="#FF6F47"
         id="stop5" />
      <stop
         offset="1"
         stop-color="#FFCD0F"
         id="stop6" />
    </linearGradient>
    <radialGradient
       id="paint2_radial_72095_9079"
       cx="0"
       cy="0"
       r="1"
       gradientUnits="userSpaceOnUse"
       gradientTransform="matrix(-1.4999631,-5.250008,7.2843852,-2.0811985,12.75,15.5)">
      <stop
         stop-color="#944600"
         id="stop7" />
      <stop
         offset="1"
         stop-color="#CD8E02"
         id="stop8" />
    </radialGradient>
    <linearGradient
       id="paint1_linear_72095_9079-3"
       x1="21.1429"
       y1="21.875"
       x2="6.5420098"
       y2="8.2777996"
       gradientUnits="userSpaceOnUse"
       gradientTransform="translate(0.03563825,0.97128817)">
      <stop
         stop-color="#FF6F47"
         id="stop5-3" />
      <stop
         offset="1"
         stop-color="#FFCD0F"
         id="stop6-4" />
    </linearGradient>
    <radialGradient
       id="paint2_radial_72095_9055"
       cx="0"
       cy="0"
       r="1"
       gradientUnits="userSpaceOnUse"
       gradientTransform="matrix(4.7672395,17.59149,-25.491445,6.908103,55.345978,4.0661139)">
      <stop
         stop-color="#FFE06B"
         id="stop9" />
      <stop
         offset="0.376456"
         stop-color="#FFA43D"
         id="stop10" />
      <stop
         offset="1"
         stop-color="#E67505"
         id="stop11" />
    </radialGradient>
    <radialGradient
       id="paint2_radial_72095_9055-2"
       cx="0"
       cy="0"
       r="1"
       gradientUnits="userSpaceOnUse"
       gradientTransform="matrix(4.7672395,17.59149,-25.491445,6.908103,79.14248,4.0851918)">
      <stop
         stop-color="#FFE06B"
         id="stop9-7" />
      <stop
         offset="0.376456"
         stop-color="#FFA43D"
         id="stop10-7" />
      <stop
         offset="1"
         stop-color="#E67505"
         id="stop11-9" />
    </radialGradient>
    <linearGradient
       id="paint1_linear_72095_8040"
       x1="6.8387098"
       y1="2.8064499"
       x2="22.114401"
       y2="22.682699"
       gradientUnits="userSpaceOnUse"
       gradientTransform="translate(92,-2)">
      <stop
         offset="0.379481"
         stop-color="#FF6CE8"
         stop-opacity="0"
         id="stop5-2" />
      <stop
         offset="1"
         stop-color="#FF6CE8"
         stop-opacity="0.7"
         id="stop6-8" />
    </linearGradient>
    <linearGradient
       id="paint1_linear_72095_8040-0"
       x1="6.8387098"
       y1="2.8064499"
       x2="22.114401"
       y2="22.682699"
       gradientUnits="userSpaceOnUse"
       gradientTransform="translate(96.039746,0.06200316)">
      <stop
         offset="0.37948099"
         stop-color="#FF6CE8"
         stop-opacity="0"
         id="stop5-24"
         style="stop-color:#ff6ce8;stop-opacity:0.89621317;" />
      <stop
         offset="1"
         stop-color="#FF6CE8"
         stop-opacity="0.7"
         id="stop6-86" />
    </linearGradient>
  </defs>
  <path
     d="m 56.410528,18.054184 h 7.53932 l 0.6439,-2.7833 c 0.011,-0.0475 0.0356,-0.0908 0.0709,-0.1245 1.8298,-1.7474 2.7654,-3.7042 2.7654,-5.8407401 0,-4.00406 -3.2459,-7.25 -7.25,-7.25 -4.00407,0 -7.25,3.24594 -7.25,7.25 0,2.1365401 0.93616,4.0933401 2.76701,5.8407401 0.03533,0.0338 0.06001,0.0771 0.071,0.1247 z"
     fill="url(#paint2_radial_72095_9055)"
     id="path3"
     style="fill:url(#paint2_radial_72095_9055)" />
  <path
     d="m 60.180047,2.0492846 c 4.0041,0 7.25,3.24593 7.25,7.25 0,2.0960204 -0.9007,4.0197204 -2.6631,5.7419204 -0.0769,0.0752 -0.1365,0.1657 -0.1751,0.2653 l -0.0314,0.1023 -1.1311,4.8956 c -0.2227,0.9639 -1.0458,1.6622 -2.0191,1.7369 l -0.1732,0.0066 h -2.1137 c -0.98956,0 -1.85539,-0.6451 -2.14701,-1.5768 l -0.04541,-0.1673 -1.12956,-4.8948 c -0.03228,-0.1399 -0.10404,-0.2676 -0.20676,-0.3679 -1.67941,-1.6402 -2.57678,-3.4631 -2.65843,-5.4435704 l -0.0061,-0.29825 0.0039,-0.23932 c 0.12626,-3.89329 3.32213,-7.01068 7.24612,-7.01068 z m 2.115,16.4980204 h -4.231 l 0.3285,1.4192 c 0.0706,0.3063 0.3232,0.5322 0.6276,0.5743 l 0.1032,0.0071 h 2.1137 c 0.3143,0 0.5911,-0.1952 0.7007,-0.4822 l 0.0301,-0.099 z m -2.115,-14.9980204 c -3.10179,0 -5.62994,2.45601 -5.74585,5.52944 l -0.0041,0.22056 0.0067,0.27701 c 0.07614,1.5633104 0.8005,3.0191104 2.2059,4.3917104 0.26413,0.258 0.46003,0.5763 0.5716,0.9263 l 0.04869,0.1775 0.45509,1.9755 h 4.923 l 0.4579,-1.9762 c 0.083,-0.3594 0.2529,-0.6919 0.4935,-0.9689 l 0.1262,-0.1338 c 1.4046,-1.3726 2.1286,-2.8285 2.2047,-4.3920704 l 0.0067,-0.27705 -0.0042,-0.22056 c -0.1159,-3.07343 -2.644,-5.52944 -5.7458,-5.52944 z"
     fill="#212121"
     id="path1-4" />
  <path
     d="m 80.20703,18.073261 h 7.53932 l 0.6439,-2.7833 c 0.011,-0.0475 0.0356,-0.0908 0.0709,-0.1245 1.8298,-1.7474 2.7654,-3.7042 2.7654,-5.8407392 0,-4.00406 -3.2459,-7.25 -7.25,-7.25 -4.00407,0 -7.25,3.24594 -7.25,7.25 0,2.1365392 0.93616,4.0933392 2.76701,5.8407392 0.03533,0.0338 0.06001,0.0771 0.071,0.1247 z"
     fill="url(#paint2_radial_72095_9055)"
     id="path3-1"
     style="fill:#6ec0ff;fill-opacity:1" />
  <path
     d="m 83.976549,2.0683625 c 4.0041,0 7.25,3.24593 7.25,7.25 0,2.0960195 -0.9007,4.0197195 -2.6631,5.7419195 -0.0769,0.0752 -0.1365,0.1657 -0.1751,0.2653 l -0.0314,0.1023 -1.1311,4.8956 c -0.2227,0.9639 -1.0458,1.6622 -2.0191,1.7369 l -0.1732,0.0066 h -2.1137 c -0.98956,0 -1.85539,-0.6451 -2.14701,-1.5768 l -0.04541,-0.1673 -1.12956,-4.8948 c -0.03228,-0.1399 -0.10404,-0.2676 -0.20676,-0.3679 -1.67941,-1.6402 -2.57678,-3.4631 -2.65843,-5.4435695 l -0.0061,-0.29825 0.0039,-0.23932 c 0.12626,-3.89329 3.32213,-7.01068 7.24612,-7.01068 z m 2.115,16.4980195 h -4.231 l 0.3285,1.4192 c 0.0706,0.3063 0.3232,0.5322 0.6276,0.5743 l 0.1032,0.0071 h 2.1137 c 0.3143,0 0.5911,-0.1952 0.7007,-0.4822 l 0.0301,-0.099 z m -2.115,-14.9980195 c -3.10179,0 -5.62994,2.45601 -5.74585,5.52944 l -0.0041,0.22056 0.0067,0.27701 c 0.07614,1.5633095 0.8005,3.0191095 2.2059,4.3917095 0.26413,0.258 0.46003,0.5763 0.5716,0.9263 l 0.04869,0.1775 0.45509,1.9755 h 4.923 l 0.4579,-1.9762 c 0.083,-0.3594 0.2529,-0.6919 0.4935,-0.9689 l 0.1262,-0.1338 c 1.4046,-1.3726 2.1286,-2.8285 2.2047,-4.3920695 l 0.0067,-0.27705 -0.0042,-0.22056 c -0.1159,-3.07343 -2.644,-5.52944 -5.7458,-5.52944 z"
     fill="#212121"
     id="path1-4-9" />
  <path
     d="m 104,0 c 0.5523,0 1,0.44772 1,1 v 2.5513 l 1.7067,-1.70668 c 0.3905,-0.39053 1.0237,-0.39053 1.4142,0 0.3905,0.39052 0.3905,1.02369 0,1.41421 L 105,6.37973 V 9 h 2.6203 l 3.1209,-3.1209 c 0.3905,-0.39052 1.0237,-0.39052 1.4142,0 0.3905,0.39052 0.3905,1.02369 0,1.41421 L 110.4487,9 H 113 c 0.5523,0 1,0.4477 1,1 0,0.5523 -0.4477,1 -1,1 h -2.5513 l 1.7067,1.7067 c 0.3905,0.3905 0.3905,1.0237 0,1.4142 -0.3905,0.3905 -1.0237,0.3905 -1.4142,0 L 107.6203,11 H 105 v 2.6203 l 3.1209,3.1209 c 0.3905,0.3905 0.3905,1.0237 0,1.4142 -0.3905,0.3905 -1.0237,0.3905 -1.4142,0 L 105,16.4487 V 19 c 0,0.5523 -0.4477,1 -1,1 -0.5523,0 -1,-0.4477 -1,-1 v -2.5513 l -1.70669,1.7067 c -0.39052,0.3905 -1.02369,0.3905 -1.41421,0 -0.39052,-0.3905 -0.39052,-1.0237 0,-1.4142 L 103,13.6203 V 11 h -2.62027 l -3.1209,3.1209 c -0.39052,0.3905 -1.02369,0.3905 -1.41421,0 -0.39053,-0.3905 -0.39053,-1.0237 0,-1.4142 L 97.5513,11 H 95 c -0.55228,0 -1,-0.4477 -1,-1 0,-0.5523 0.44772,-1 1,-1 h 2.5513 L 95.84462,7.29331 c -0.39053,-0.39052 -0.39053,-1.02369 0,-1.41421 0.39052,-0.39052 1.02369,-0.39052 1.41421,0 L 100.37973,9 H 103 V 6.37973 l -3.1209,-3.1209 c -0.39052,-0.39052 -0.39052,-1.02369 0,-1.41421 0.39052,-0.39053 1.02369,-0.39053 1.41421,0 L 103,3.5513 V 1 c 0,-0.55228 0.4477,-1 1,-1 z"
     fill="url(#paint1_linear_72095_8040)"
     id="path2-6"
     style="fill:none" />
  <path
     d="m 132.16852,1.8934817 c 0.4142,0 0.75,0.33579 0.75,0.75 v 1.5 c 0,0.41421 -0.3358,0.75 -0.75,0.75 -0.4142,0 -0.75,-0.33579 -0.75,-0.75 v -1.5 c 0,-0.41421 0.3358,-0.75 0.75,-0.75 z m 0,15.0000003 c 2.7614,0 5,-2.2386 5,-5 0,-2.7614203 -2.2386,-5.0000003 -5,-5.0000003 -2.76142,0 -5,2.23858 -5,5.0000003 0,2.7614 2.23858,5 5,5 z m 0,-1.5 c -1.933,0 -3.5,-1.567 -3.5,-3.5 0,-1.9330003 1.567,-3.5000003 3.5,-3.5000003 1.933,0 3.5,1.567 3.5,3.5000003 0,1.933 -1.567,3.5 -3.5,3.5 z m 9.25,-2.75 c 0.4142,0 0.75,-0.3358 0.75,-0.75 0,-0.4142 -0.3358,-0.75 -0.75,-0.75 h -1.5 c -0.4142,0 -0.75,0.3358 -0.75,0.75 0,0.4142 0.3358,0.75 0.75,0.75 z m -9.25,6.25 c 0.4142,0 0.75,0.3358 0.75,0.75 v 1.5 c 0,0.4142 -0.3358,0.75 -0.75,0.75 -0.4142,0 -0.75,-0.3358 -0.75,-0.75 v -1.5 c 0,-0.4142 0.3358,-0.75 0.75,-0.75 z m -7.75,-6.25 c 0.41421,0 0.75,-0.3358 0.75,-0.75 0,-0.4142 -0.33579,-0.75 -0.75,-0.75 h -1.5 c -0.41421,0 -0.75,0.3358 -0.75,0.75 0,0.4142 0.33579,0.75 0.75,0.75 z m -0.0303,-8.5299603 c 0.29289,-0.29289 0.76777,-0.29289 1.06066,0 l 1.5,1.5 c 0.29289,0.2929 0.29289,0.76777 0,1.06066 -0.29289,0.2929 -0.76777,0.2929 -1.06066,0 l -1.5,-1.5 c -0.29289,-0.29289 -0.29289,-0.76776 0,-1.06066 z m 1.06066,15.5606603 c -0.29289,0.2929 -0.76777,0.2929 -1.06066,0 -0.29289,-0.2929 -0.29289,-0.7678 0,-1.0607 l 1.5,-1.5 c 0.29289,-0.2929 0.76777,-0.2929 1.06066,0 0.29289,0.2929 0.29289,0.7678 0,1.0607 z M 139.94885,4.1135217 c -0.2929,-0.29289 -0.7677,-0.29289 -1.0606,0 l -1.5,1.5 c -0.2929,0.2929 -0.2929,0.76777 0,1.06066 0.2929,0.2929 0.7677,0.2929 1.0606,0 l 1.5,-1.5 c 0.2929,-0.29289 0.2929,-0.76776 0,-1.06066 z m -1.0606,15.5606603 c 0.2929,0.2929 0.7677,0.2929 1.0606,0 0.2929,-0.2929 0.2929,-0.7678 0,-1.0607 l -1.5,-1.5 c -0.2929,-0.2929 -0.7677,-0.2929 -1.0606,0 -0.2929,0.2929 -0.2929,0.7678 0,1.0607 z"
     fill="#212121"
     id="path1-0"
     style="fill:#ffcd10;fill-opacity:1" />
  <path
     d="m 108.01868,2.2209857 c 0.4142,0 0.75,0.33579 0.75,0.75 v 3.15486 l 2.1335,-2.13347 c 0.2929,-0.29289 0.7677,-0.29289 1.0606,0 0.2929,0.2929 0.2929,0.76777 0,1.06066 l -3.1941,3.19413 v 2.9738203 h 2.9738 l 3.1941,-3.1941203 c 0.2929,-0.2929 0.7678,-0.2929 1.0607,0 0.2929,0.29289 0.2929,0.76776 0,1.06066 l -2.1335,2.1334603 h 3.1549 c 0.4142,0 0.75,0.3358 0.75,0.75 0,0.4142 -0.3358,0.75 -0.75,0.75 h -3.1549 l 2.1335,2.1335 c 0.2929,0.2929 0.2929,0.7677 0,1.0606 -0.2929,0.2929 -0.7678,0.2929 -1.0607,0 l -3.1941,-3.1941 h -2.9738 v 2.9738 l 3.1941,3.1941 c 0.2929,0.2929 0.2929,0.7678 0,1.0607 -0.2929,0.2929 -0.7677,0.2929 -1.0606,0 l -2.1335,-2.1335 v 3.1549 c 0,0.4142 -0.3358,0.75 -0.75,0.75 -0.4142,0 -0.75,-0.3358 -0.75,-0.75 v -3.1549 l -2.13346,2.1335 c -0.2929,0.2929 -0.76777,0.2929 -1.06066,0 -0.2929,-0.2929 -0.2929,-0.7678 0,-1.0607 l 3.19412,-3.1941 v -2.9738 h -2.97382 l -3.19413,3.1941 c -0.29289,0.2929 -0.76776,0.2929 -1.06066,0 -0.29289,-0.2929 -0.29289,-0.7677 0,-1.0606 l 2.13347,-2.1335 h -3.15486 c -0.41421,0 -0.75,-0.3358 -0.75,-0.75 0,-0.4142 0.33579,-0.75 0.75,-0.75 h 3.15486 l -2.13347,-2.1334603 c -0.29289,-0.2929 -0.29289,-0.76777 0,-1.06066 0.2929,-0.2929 0.76777,-0.2929 1.06066,0 l 3.19413,3.1941203 h 2.97382 V 8.2471657 l -3.19412,-3.19413 c -0.2929,-0.29289 -0.2929,-0.76776 0,-1.06066 0.29289,-0.29289 0.76776,-0.29289 1.06066,0 l 2.13346,2.13347 v -3.15486 c 0,-0.41421 0.3358,-0.75 0.75,-0.75 z"
     fill="#212121"
     id="path1-9"
     style="fill:#6ec0ff;fill-opacity:1" />
  <path
     d="m 159.77317,2.9650239 c 1.2426,0 2.25,1.00736 2.25,2.25 l -5e-4,0.753 0.7505,5.8e-4 c 1.7944,0.00175 3.2486,1.45519 3.2513,3.24886 l 0.003,5.9972601 c 0.002,1.2421 -1.005,2.2505 -2.248,2.2512 l -1.7588,-9e-4 v 1.25 c 0,1.2426 -1.0074,2.25 -2.25,2.25 h -7.5 c -1.24264,0 -2.25,-1.0074 -2.25,-2.25 l 9.1e-4,-1.25 -1.75091,10e-5 c -1.24264,0 -2.25,-1.0074 -2.25,-2.25 V 9.2186039 c 0,-1.79493 1.45507,-3.25 3.25,-3.25 l 0.749,-5.8e-4 0.001,-0.753 c 0,-1.24264 1.00736,-2.25 2.25,-2.25 z m -0.002,10.5000001 h -7.5 c -0.41421,0 -0.75,0.3358 -0.75,0.75 v 4.5 c 0,0.4142 0.33579,0.75 0.75,0.75 h 7.5 c 0.4142,0 0.75,-0.3358 0.75,-0.75 v -4.5 c 0,-0.4142 -0.3358,-0.75 -0.75,-0.75 z m 3.0018,-5.9964201 h -13.5023 c -0.9665,0 -1.75,0.7835 -1.75,1.75 v 5.9965201 c 0,0.4142 0.33579,0.75 0.75,0.75 l 1.75,-10e-5 v -1.75 c 0,-1.2426 1.00736,-2.25 2.25,-2.25 h 7.5 c 1.2426,0 2.25,1.0074 2.25,2.25 l 9e-4,1.7501 1.7818,4e-4 c 0.4028,-0.0131 0.725,-0.3438 0.7244,-0.7493 l -0.003,-5.9972201 c -10e-4,-0.96597 -0.7853,-1.74946 -1.752,-1.7504 z m -2.9998,-3.00358 h -7.5025 c -0.41421,0 -0.75,0.33579 -0.75,0.75 l -0.001,0.753 h 9.003 l 5e-4,-0.753 c 0,-0.41421 -0.3358,-0.75 -0.75,-0.75 z"
     fill="#212121"
     id="path1-00" />
  <path
     d="m 183.91148,2.9920509 c 1.2426,0 2.25,1.00736 2.25,2.25 l -5e-4,0.753 0.7505,5.8e-4 c 1.7944,0.00175 3.2486,1.45519 3.2513,3.24886 l 0.003,5.9972601 c 0.002,1.2421 -1.005,2.2505 -2.248,2.2512 l -1.7588,-9e-4 v 1.25 c 0,1.2426 -1.0074,2.25 -2.25,2.25 h -7.5 c -1.24264,0 -2.25,-1.0074 -2.25,-2.25 l 9.1e-4,-1.25 -1.75091,10e-5 c -1.24264,0 -2.25,-1.0074 -2.25,-2.25 V 9.2456309 c 0,-1.79493 1.45507,-3.25 3.25,-3.25 l 0.749,-5.8e-4 0.001,-0.753 c 0,-1.24264 1.00736,-2.25 2.25,-2.25 z m -0.002,10.5000001 h -7.5 c -0.41421,0 -0.75,0.3358 -0.75,0.75 v 4.5 c 0,0.4142 0.33579,0.75 0.75,0.75 h 7.5 c 0.4142,0 0.75,-0.3358 0.75,-0.75 v -4.5 c 0,-0.4142 -0.3358,-0.75 -0.75,-0.75 z m 3.0018,-5.9964201 h -13.5023 c -0.9665,0 -1.75,0.7835 -1.75,1.75 v 5.9965201 c 0,0.4142 0.33579,0.75 0.75,0.75 l 1.75,-10e-5 v -1.75 c 0,-1.2426 1.00736,-2.25 2.25,-2.25 h 7.5 c 1.2426,0 2.25,1.0074 2.25,2.25 l 9e-4,1.7501 1.7818,4e-4 c 0.4028,-0.0131 0.725,-0.3438 0.7244,-0.7493 l -0.003,-5.9972201 c -0.001,-0.96597 -0.7853,-1.74946 -1.752,-1.7504 z m -2.9998,-3.00358 h -7.5025 c -0.41421,0 -0.75,0.33579 -0.75,0.75 l -0.001,0.753 h 9.003 l 5e-4,-0.753 c 0,-0.41421 -0.3358,-0.75 -0.75,-0.75 z"
     fill="#212121"
     id="path1-00-1" />
  <path
     d="m 182.38553,19.308303 1.42,1.420063 c 0.122,0.122 0.31994,0.122 0.442,0 0.122,-0.122063 0.122,-0.319938 0,-0.442 l -8.12504,-8.124969 c -0.122,-0.122038 -0.3199,-0.122038 -0.44194,0 -0.122,0.122037 -0.122,0.3199 0,0.441937 l 1.42001,1.420019 c -0.55305,0.653338 -0.88653,1.498481 -0.88653,2.421513 0,2.071062 1.67892,3.75 3.75,3.75 0.92302,0 1.76818,-0.3335 2.4215,-0.886563 z m -0.44375,-0.44375 c -0.53875,0.440813 -1.22736,0.705313 -1.97775,0.705313 -1.72589,0 -3.125,-1.399125 -3.125,-3.125 0,-0.750394 0.26449,-1.439019 0.70532,-1.977732 z m 1.14725,-2.419687 c 0,0.521531 -0.12775,1.013218 -0.35369,1.4455 l 0.4595,0.459437 c 0.32988,-0.55825 0.51919,-1.209494 0.51919,-1.904937 0,-2.071069 -1.67894,-3.75 -3.75,-3.75 -0.69545,0 -1.34668,0.189306 -1.90496,0.5192 l 0.45947,0.459481 c 0.43226,-0.225925 0.92395,-0.353681 1.44549,-0.353681 1.72587,0 3.125,1.399112 3.125,3.125 z"
     fill="#212121"
     id="path1-3"
     style="fill:#ff0000;fill-opacity:1;stroke-width:0.625" />
  <path
     d="m 196.84138,12.547091 c -0.29289,-0.2929 -0.76777,-0.2929 -1.06066,0 -0.29289,0.2929 -0.29289,0.767701 0,1.060601 l 4.5,4.499999 c 0.29289,0.2929 0.76777,0.2929 1.06066,0 L 212.34135,7.1077211 c 0.2929,-0.29289 0.2929,-0.76777 0,-1.06066 -0.2929,-0.29289 -0.7677,-0.29289 -1.0606,0 l -10.4697,10.4696299 z"
     fill="#212121"
     id="path1-8"
     style="fill:#00e800;fill-opacity:1" />
  <path
     d="m 219.98548,4.0432354 h 11 c 1.1046,0 2,0.89543 2,2 v 6.9999996 c 0,1.1046 -0.8954,2 -2,2 h -11 c -1.10457,0 -2,-0.8954 -2,-2 V 6.0432354 c 0,-1.10457 0.89543,-2 2,-2 z m 11,1.5 h -11 c -0.27614,0 -0.5,0.22386 -0.5,0.5 v 6.9999996 c 0,0.2761 0.22386,0.5 0.5,0.5 h 11 c 0.2761,0 0.5,-0.2239 0.5,-0.5 V 6.0432354 c 0,-0.27614 -0.2239,-0.5 -0.5,-0.5 z M 220.5485,16.043235 c 0.22202,0.8626 1.00507,1.5 1.93699,1.5 h 8.99999 c 2.2091,0 4,-1.7909 4,-4 V 8.5432154 c 0,-0.93192 -0.6374,-1.71497 -1.5,-1.93699 v 6.9370096 c 0,1.3807 -1.1193,2.5 -2.5,2.5 z m 2.5,2.5 c 0.22202,0.8626 1.00507,1.5 1.93699,1.5 h 7.24999 c 3.1756,0 5.75,-2.5744 5.75,-5.75 v -3.25 c 0,-0.9319 -0.6374,-1.7149896 -1.5,-1.9370096 v 5.1870096 c 0,2.3472 -1.9028,4.25 -4.25,4.25 z"
     fill="#212121"
     id="path1-93" />
  <path
     d="m 244.0318,4.1685215 h 11 c 1.1046,0 2,0.89543 2,2 v 6.9999995 c 0,1.1046 -0.8954,2 -2,2 h -11 c -1.10457,0 -2,-0.8954 -2,-2 V 6.1685215 c 0,-1.10457 0.89543,-2 2,-2 z m 11,1.5 h -11 c -0.27614,0 -0.5,0.22386 -0.5,0.5 v 6.9999995 c 0,0.2761 0.22386,0.5 0.5,0.5 h 11 c 0.2761,0 0.5,-0.2239 0.5,-0.5 V 6.1685215 c 0,-0.27614 -0.2239,-0.5 -0.5,-0.5 z M 244.59482,16.168521 c 0.22202,0.8626 1.00507,1.5 1.93699,1.5 h 8.99999 c 2.2091,0 4,-1.7909 4,-4 V 8.6685015 c 0,-0.93192 -0.6374,-1.71497 -1.5,-1.93699 v 6.9370095 c 0,1.3807 -1.1193,2.5 -2.5,2.5 z m 2.5,2.5 c 0.22202,0.8626 1.00507,1.5 1.93699,1.5 h 7.24999 c 3.1756,0 5.75,-2.5744 5.75,-5.75 v -3.25 c 0,-0.9319 -0.6374,-1.7149895 -1.5,-1.9370095 v 5.1870095 c 0,2.3472 -1.9028,4.25 -4.25,4.25 z"
     fill="#212121"
     id="path1-93-0" />
</svg>
